<svg xmlns="http://www.w3.org/2000/svg" width="520" height="410" viewBox="0 0 520 410"><defs><linearGradient id="panel" x2="1" y2="1"><stop stop-color="#fff"/><stop offset="1" stop-color="#e2edf8"/></linearGradient><linearGradient id="blue" x2="0" y2="1"><stop stop-color="#2c78ce"/><stop offset="1" stop-color="#154778"/></linearGradient><filter id="shadow" x="-30%" y="-30%" width="160%" height="180%"><feDropShadow dx="0" dy="13" stdDeviation="15" flood-color="#102b46" flood-opacity=".12"/></filter></defs><g fill="none" stroke="#d2dfeb"><circle cx="280" cy="205" r="175"/><circle cx="280" cy="205" r="135"/><path d="M35 205h460M280 25v360" stroke-dasharray="3 8"/></g><path d="M133 282h73q26 0 26-26v-73q0-25 26-25h62" fill="none" stroke="#659bd5" stroke-width="3" stroke-dasharray="6 6"/><circle cx="232" cy="216" r="8" fill="#edf3f8" stroke="#1764bd" stroke-width="3"/><g filter="url(#shadow)"><rect x="48" y="229" width="140" height="111" rx="12" fill="#fff" stroke="#d0dfed"/><rect x="65" y="247" width="106" height="22" rx="4" fill="#eaf0f6"/><rect x="65" y="279" width="106" height="22" rx="4" fill="#eaf0f6"/><rect x="65" y="311" width="106" height="12" rx="4" fill="#eaf0f6"/></g><g fill="#1764bd"><circle cx="78" cy="258" r="3"/><circle cx="78" cy="290" r="3"/></g><g stroke="#97aec3" stroke-width="2"><path d="M91 258h58M91 290h58"/></g><g filter="url(#shadow)"><rect x="253" y="64" width="217" height="200" rx="19" fill="url(#panel)" stroke="#cadcec"/><rect x="268" y="79" width="187" height="170" rx="11" fill="url(#blue)"/></g><path d="M309 180h100a23 23 0 0 0 0-46h-3a40 40 0 0 0-76-9 28 28 0 0 0-21 55Z" fill="none" stroke="#fff" stroke-width="4" stroke-linejoin="round"/><path d="M356 164v-31m-12 12 12-12 12 12" fill="none" stroke="#99c8ff" stroke-width="4" stroke-linecap="round" stroke-linejoin="round"/><path d="M326 214h69" stroke="#83b6ea" stroke-width="3" stroke-linecap="round"/><g filter="url(#shadow)"><rect x="300" y="290" width="176" height="56" rx="9" fill="#fff" stroke="#d0dfed"/></g><circle cx="328" cy="318" r="11" fill="#e8f1fc"/><path d="m323 318 4 4 7-8" fill="none" stroke="#1764bd" stroke-width="2"/><path d="M350 311h98M350 325h65" stroke="#9db3c8" stroke-width="4" stroke-linecap="round"/></svg>
